<svg width="27" height="24" viewBox="0 0 27 24" fill="none" xmlns="http://www.w3.org/2000/svg">
<path d="M13.0878 24L11.1913 22.2997C8.98972 20.3161 7.16955 18.6049 5.73086 17.1662C4.29217 15.7275 3.14775 14.436 2.29762 13.2916C1.44748 12.1471 0.853476 11.0954 0.515601 10.1362C0.177726 9.17711 0.00878906 8.19619 0.00878906 7.19346C0.00878906 5.14441 0.695437 3.43324 2.06873 2.05995C3.44203 0.686648 5.1532 0 7.20225 0C8.33576 0 9.41478 0.239782 10.4393 0.719346C11.4638 1.19891 12.3467 1.87466 13.0878 2.74659C13.829 1.87466 14.7118 1.19891 15.7363 0.719346C16.7608 0.239782 17.8399 0 18.9734 0C21.0224 0 22.7336 0.686648 24.1069 2.05995C25.4802 3.43324 26.1668 5.14441 26.1668 7.19346C26.1668 8.19619 25.9979 9.17711 25.66 10.1362C25.3221 11.0954 24.7281 12.1471 23.878 13.2916C23.0279 14.436 21.8834 15.7275 20.4448 17.1662C19.0061 18.6049 17.1859 20.3161 14.9843 22.2997L13.0878 24ZM13.0878 20.4687C15.1805 18.594 16.9025 16.9864 18.254 15.6458C19.6055 14.3052 20.6736 13.139 21.4584 12.1471C22.2431 11.1553 22.7881 10.2725 23.0933 9.49864C23.3984 8.7248 23.551 7.9564 23.551 7.19346C23.551 5.88556 23.1151 4.79564 22.2431 3.92371C21.3712 3.05177 20.2813 2.6158 18.9734 2.6158C17.9488 2.6158 17.0006 2.90463 16.1287 3.48229C15.2567 4.05995 14.6573 4.79564 14.3303 5.68937H11.8453C11.5183 4.79564 10.9189 4.05995 10.0469 3.48229C9.175 2.90463 8.22677 2.6158 7.20225 2.6158C5.89435 2.6158 4.80443 3.05177 3.93249 3.92371C3.06056 4.79564 2.62459 5.88556 2.62459 7.19346C2.62459 7.9564 2.77718 8.7248 3.08236 9.49864C3.38754 10.2725 3.93249 11.1553 4.71724 12.1471C5.50198 13.139 6.5701 14.3052 7.9216 15.6458C9.27309 16.9864 10.9952 18.594 13.0878 20.4687Z" fill="#FAFAFA"/>
</svg>
